<svg xmlns="http://www.w3.org/2000/svg" fill="none" viewBox="0 0 172 40">
  <path fill="#80B224" d="M6.419 15.191c3.248-2.448 7.518-6.476 10.606-11.421.184-.296.62-.24.673.105.646 4.18-3.283 8.923-5.86 11.375h5.087c.406 0 .662.435.453.783-2.252 3.757-5.252 6.413-7.269 8.115h5.925c.523 0 .842.57.551 1.004-3.697 5.514-9.35 8.931-14.431 10.86a.267.267 0 0 1-.353-.185l-.734-2.821a.273.273 0 0 1 .186-.33c4.05-1.234 8.734-4.963 8.835-5.243H5.244a.27.27 0 0 1-.251-.174l-1.058-2.805a.272.272 0 0 1 .125-.335c2.525-1.377 5.662-3.934 7.037-5.57h-3.3a.27.27 0 0 1-.247-.165l-1.217-2.872a.269.269 0 0 1 .086-.32Z"/>
  <path fill="#80B224" d="M29.583 15.218c-3.248-2.448-7.519-6.476-10.606-11.422-.185-.296-.62-.24-.674.105-.646 4.18 3.283 8.923 5.861 11.375h-5.081a.522.522 0 0 0-.457.789c2.252 3.753 5.25 6.409 7.266 8.11h-5.924c-.523 0-.843.568-.552 1.003 3.697 5.514 9.35 8.931 14.432 10.86a.267.267 0 0 0 .352-.184l.734-2.822a.273.273 0 0 0-.186-.33c-4.05-1.233-8.733-4.963-8.834-5.243h4.843a.27.27 0 0 0 .252-.174l1.057-2.805a.272.272 0 0 0-.125-.335c-2.524-1.377-5.661-3.933-7.037-5.57h3.3a.27.27 0 0 0 .247-.165l1.217-2.872a.269.269 0 0 0-.085-.32Z"/>
  <path fill="#80B224" d="M14.789 30.964c1.092-.403 2.35-.518 3.487-.479 1.065.037 2.05.212 2.727.433l.131.046.025.008.023.013c.714.393 1.696.777 2.633 1.04.466.132.916.232 1.31.289.398.057.717.066.933.031a.337.337 0 1 1 .108.665c-.316.051-.714.03-1.138-.03-.43-.062-.908-.169-1.396-.306-.962-.272-1.981-.667-2.747-1.084-.598-.211-1.561-.395-2.633-.432-1.075-.038-2.228.073-3.206.43-2.514 1.421-4.25 1.44-5.238 1.44a.336.336 0 1 1 0-.673c.927 0 2.542-.01 4.931-1.367l.024-.014.026-.01Z"/>
  <path fill="#80B224" d="M14.74 32.372c1.102-.402 2.372-.518 3.52-.479 1.076.037 2.07.212 2.754.433l.132.045.025.009.023.013c.722.392 1.714.777 2.66 1.04.473.132.927.232 1.325.289.403.057.726.067.945.031a.337.337 0 1 1 .107.665c-.318.051-.72.031-1.147-.03a11.286 11.286 0 0 1-1.41-.306c-.972-.271-2.001-.667-2.774-1.084-.605-.211-1.58-.395-2.663-.432-1.087-.037-2.253.074-3.242.43-2.538 1.421-4.205 1.429-5.203 1.429a.337.337 0 0 1 0-.673c.936 0 2.483.002 4.899-1.357l.023-.014.026-.009Z"/>
  <path fill="#80B224" d="M14.747 33.788c2.186-.79 4.81-.568 6.293-.072l.14.049.031.011.03.016a12.91 12.91 0 0 0 2.707 1.073c.866.23 1.583.303 2.027.238a.471.471 0 0 1 .135.933c-.63.091-1.492-.018-2.403-.26a13.851 13.851 0 0 1-2.877-1.135c-1.279-.457-3.738-.689-5.738.025-1.236.622-2.056.96-2.807 1.144-.758.186-1.425.209-2.324.237a.471.471 0 0 1-.029-.942c.91-.028 1.48-.051 2.13-.21.65-.16 1.4-.462 2.632-1.084l.026-.013.027-.01Z"/>
  <path fill="url(#a)" d="M10.11 24.148h3.283c-.703.98-2.55 2.768-3.306 3.286v-.001H5.244l-.03-.002c1.561-.774 4.614-3.072 4.888-3.278l.008-.006Z"/>
  <path fill="url(#b)" d="M11.836 15.25h2.067c-.652.916-2 2.63-2.814 3.298H7.821c1.306-1.006 3.793-3.03 4.017-3.301h.002l-.004.003Z"/>
  <path fill="url(#c)" d="M24.152 15.276c.351.368 2.768 2.332 4.025 3.298h-3.27c-.803-.642-2.16-2.363-2.828-3.298h2.073Z"/>
  <path fill="url(#d)" d="M25.89 24.174c.413.31 3.392 2.542 4.899 3.276l-.657.009h-4.217c-.723-.477-2.596-2.283-3.325-3.285h3.3Z"/>
  <path fill="#333" d="M161.725 27.198c-.967 0-1.8-.207-2.499-.62a4.202 4.202 0 0 1-1.611-1.758c-.375-.758-.562-1.647-.562-2.665 0-1.006.187-1.892.562-2.66.379-.766.908-1.365 1.585-1.795.682-.43 1.479-.646 2.391-.646.554 0 1.091.092 1.611.275.52.183.986.47 1.4.863.413.392.739.901.978 1.527.238.623.358 1.379.358 2.27v.677h-7.805v-1.432h5.932c0-.503-.102-.948-.307-1.336a2.322 2.322 0 0 0-.863-.926c-.366-.226-.797-.34-1.291-.34-.537 0-1.006.133-1.406.397-.397.26-.704.601-.921 1.023a2.952 2.952 0 0 0-.319 1.361v1.119c0 .656.115 1.215.345 1.675.234.46.56.811.978 1.054.417.239.905.358 1.463.358.363 0 .693-.05.991-.153.299-.107.556-.264.774-.473.217-.209.383-.467.498-.773l1.809.326a3.284 3.284 0 0 1-.78 1.4c-.37.396-.837.705-1.399.926-.559.218-1.196.326-1.912.326Zm-5.693-10.016L152.471 27h-2.045l-3.567-9.818h2.052l2.486 7.555h.103l2.48-7.555h2.052Zm-15.439 10.035a4.005 4.005 0 0 1-1.687-.345 2.844 2.844 0 0 1-1.196-1.016c-.289-.443-.434-.987-.434-1.63 0-.554.106-1.01.319-1.368a2.36 2.36 0 0 1 .863-.85 4.5 4.5 0 0 1 1.215-.473 11.85 11.85 0 0 1 1.368-.243l1.431-.166c.367-.047.633-.122.799-.224.167-.102.25-.268.25-.499v-.044c0-.559-.158-.991-.473-1.298-.311-.307-.776-.46-1.394-.46-.643 0-1.15.143-1.521.428-.367.281-.62.595-.761.94l-1.796-.41c.213-.596.524-1.078.933-1.444.414-.37.889-.64 1.426-.805a5.561 5.561 0 0 1 1.694-.256c.392 0 .807.047 1.246.14.443.09.857.256 1.24.5.388.242.705.59.953 1.041.247.448.37 1.03.37 1.745V27h-1.866v-1.342h-.077a2.7 2.7 0 0 1-.556.728 2.959 2.959 0 0 1-.952.595c-.388.157-.853.236-1.394.236Zm.416-1.534c.528 0 .98-.104 1.355-.313a2.2 2.2 0 0 0 .863-.818c.2-.341.3-.705.3-1.093v-1.266c-.068.068-.2.132-.396.192a6.165 6.165 0 0 1-.659.147 80.04 80.04 0 0 1-.722.109l-.588.076c-.371.047-.71.126-1.016.237-.303.11-.546.27-.729.48-.179.204-.269.476-.269.817 0 .473.175.831.525 1.074.349.239.794.358 1.336.358ZM123.824 27l-3.631-13.09h2.078l2.55 10.137h.121l2.653-10.138h2.058l2.653 10.144h.121l2.545-10.144h2.083L133.418 27h-1.988l-2.755-9.805h-.102L125.818 27h-1.994Zm-16.468 3.682c-.285 0-.545-.024-.78-.07a2.46 2.46 0 0 1-.524-.141l.461-1.566c.349.094.66.134.933.121.273-.012.513-.115.722-.306.213-.192.401-.505.563-.94l.236-.652-3.592-9.946h2.045l2.487 7.62h.102l2.486-7.62h2.052l-4.046 11.128a4.424 4.424 0 0 1-.716 1.298c-.29.358-.635.626-1.035.805-.401.18-.865.269-1.394.269Zm-11.983 0v-13.5h1.866v1.591h.16c.11-.204.27-.44.48-.71.208-.267.498-.502.869-.702.37-.205.86-.307 1.47-.307.793 0 1.5.2 2.122.6.622.401 1.11.979 1.464 1.733.358.754.537 1.662.537 2.723s-.177 1.971-.531 2.73c-.353.754-.839 1.335-1.457 1.744-.618.405-1.323.608-2.116.608-.596 0-1.084-.1-1.464-.3-.375-.2-.669-.435-.882-.704a5.31 5.31 0 0 1-.492-.716h-.115v5.21h-1.911Zm1.873-8.591c0 .69.1 1.295.3 1.815.2.52.49.927.87 1.221.379.29.843.435 1.393.435.571 0 1.048-.152 1.432-.454.383-.307.673-.722.869-1.247.2-.524.3-1.114.3-1.77 0-.648-.098-1.23-.294-1.745-.191-.516-.481-.923-.869-1.221-.383-.298-.863-.447-1.438-.447-.554 0-1.023.142-1.406.428-.38.285-.667.684-.863 1.195-.196.512-.294 1.108-.294 1.79Zm-8.583 5.107c-.92 0-1.724-.21-2.41-.633a4.267 4.267 0 0 1-1.598-1.77c-.38-.759-.57-1.645-.57-2.66 0-1.018.19-1.908.57-2.671.38-.763.912-1.355 1.598-1.777.686-.422 1.49-.633 2.41-.633.92 0 1.723.21 2.41.633.686.422 1.218 1.014 1.598 1.777.379.763.568 1.653.568 2.672 0 1.014-.19 1.9-.569 2.659a4.267 4.267 0 0 1-1.598 1.77c-.686.422-1.489.633-2.41.633Zm.006-1.604c.597 0 1.09-.158 1.483-.473.392-.316.682-.735.87-1.26a5.007 5.007 0 0 0 .287-1.732 4.99 4.99 0 0 0-.288-1.726c-.187-.528-.477-.952-.869-1.272-.392-.32-.886-.479-1.483-.479-.6 0-1.1.16-1.496.48-.392.319-.684.743-.875 1.271a5.091 5.091 0 0 0-.282 1.726c0 .631.094 1.208.282 1.732.191.525.483.944.875 1.26.397.315.895.473 1.496.473ZM75.68 21.17V27h-1.91v-9.818h1.834v1.598h.121c.226-.52.58-.938 1.061-1.253.486-.315 1.098-.473 1.835-.473.669 0 1.255.14 1.758.422.502.277.892.69 1.17 1.24.276.55.415 1.23.415 2.039V27h-1.911v-6.015c0-.712-.186-1.268-.556-1.668-.371-.405-.88-.608-1.528-.608-.443 0-.837.096-1.183.288-.34.192-.611.473-.811.844-.197.366-.294.81-.294 1.33Zm-9.302 6.047a4.009 4.009 0 0 1-1.687-.345 2.842 2.842 0 0 1-1.196-1.016c-.29-.443-.434-.987-.434-1.63 0-.554.106-1.01.32-1.368.212-.358.5-.641.862-.85a4.506 4.506 0 0 1 1.215-.473 11.85 11.85 0 0 1 1.368-.243l1.431-.166c.367-.047.633-.122.8-.224.166-.102.249-.268.249-.499v-.044c0-.559-.158-.991-.473-1.298-.311-.307-.776-.46-1.394-.46-.643 0-1.15.143-1.521.428-.366.281-.62.595-.76.94l-1.797-.41c.213-.596.524-1.078.934-1.444.413-.37.888-.64 1.425-.805a5.563 5.563 0 0 1 1.694-.256c.392 0 .807.047 1.246.14.443.09.857.256 1.24.5.388.242.706.59.953 1.041.247.448.37 1.03.37 1.745V27h-1.866v-1.342h-.077a2.7 2.7 0 0 1-.556.728 2.953 2.953 0 0 1-.952.595c-.388.157-.853.236-1.394.236Zm.416-1.534c.528 0 .98-.104 1.355-.313.38-.209.667-.482.863-.818.2-.341.3-.705.3-1.093v-1.266c-.068.068-.2.132-.396.192a6.185 6.185 0 0 1-.659.147 78.5 78.5 0 0 1-.722.109l-.588.076c-.37.047-.71.126-1.016.237-.303.11-.546.27-.729.48-.179.204-.268.476-.268.817 0 .473.174.831.524 1.074.35.239.795.358 1.336.358Zm-5.483-7.517h-1.994a3.048 3.048 0 0 0-1.196-1.95 3.308 3.308 0 0 0-1.016-.51 3.97 3.97 0 0 0-1.182-.173c-.755 0-1.43.19-2.027.569-.592.379-1.06.935-1.406 1.668-.34.733-.511 1.628-.511 2.684 0 1.066.17 1.965.511 2.698.345.733.816 1.287 1.413 1.662a3.705 3.705 0 0 0 2.013.562c.414 0 .806-.055 1.176-.166a3.386 3.386 0 0 0 1.017-.505 3.06 3.06 0 0 0 1.208-1.924l1.994.007a5.34 5.34 0 0 1-.62 1.777 4.904 4.904 0 0 1-1.17 1.393 5.29 5.29 0 0 1-1.623.901 6.01 6.01 0 0 1-1.995.32c-1.133 0-2.143-.268-3.03-.805-.886-.542-1.585-1.315-2.096-2.32-.507-1.006-.76-2.206-.76-3.6 0-1.397.255-2.597.766-3.598.512-1.006 1.21-1.777 2.097-2.314.886-.541 1.894-.812 3.023-.812.695 0 1.343.1 1.944.3a5.13 5.13 0 0 1 1.63.87c.481.38.88.844 1.195 1.393.315.546.528 1.17.64 1.873Z"/>
  <defs>
    <linearGradient id="a" x1="9.304" x2="9.304" y1="24.147" y2="27.434" gradientUnits="userSpaceOnUse">
      <stop stop-color="#1B9135"/>
      <stop offset="1" stop-color="#1A552C"/>
    </linearGradient>
    <linearGradient id="b" x1="10.862" x2="10.862" y1="15.247" y2="18.548" gradientUnits="userSpaceOnUse">
      <stop stop-color="#1B9135"/>
      <stop offset="1" stop-color="#1A552C"/>
    </linearGradient>
    <linearGradient id="c" x1="25.128" x2="25.128" y1="15.276" y2="18.574" gradientUnits="userSpaceOnUse">
      <stop stop-color="#1B9135"/>
      <stop offset="1" stop-color="#1A552C"/>
    </linearGradient>
    <linearGradient id="d" x1="26.689" x2="26.689" y1="24.174" y2="27.459" gradientUnits="userSpaceOnUse">
      <stop stop-color="#1B9135"/>
      <stop offset="1" stop-color="#1A552C"/>
    </linearGradient>
  </defs>
</svg>
