<svg xmlns="http://www.w3.org/2000/svg" fill="none" viewBox="0 0 36 40">
  <g clip-path="url(#a)">
    <path fill="#80B224" d="M6.418 15.62c3.248-2.447 7.519-6.474 10.607-11.42.184-.296.62-.24.673.105.645 4.18-3.283 8.923-5.861 11.375h5.088c.406 0 .662.435.453.783-2.252 3.757-5.252 6.414-7.269 8.115h5.924c.523 0 .843.57.552 1.004-3.698 5.514-9.35 8.931-14.432 10.86a.267.267 0 0 1-.353-.184l-.733-2.822a.273.273 0 0 1 .186-.33c4.05-1.234 8.733-4.963 8.834-5.243H5.244a.27.27 0 0 1-.252-.174l-1.057-2.805a.272.272 0 0 1 .125-.335c2.524-1.377 5.661-3.934 7.037-5.57h-3.3a.27.27 0 0 1-.248-.165l-1.216-2.872a.269.269 0 0 1 .085-.32Z"/>
    <path fill="#80B224" d="M29.583 15.647c-3.248-2.448-7.519-6.476-10.606-11.422-.185-.296-.62-.24-.674.105-.646 4.18 3.283 8.923 5.861 11.375h-5.081a.522.522 0 0 0-.457.79c2.252 3.753 5.25 6.408 7.266 8.108h-5.924c-.523 0-.843.57-.552 1.004 3.697 5.514 9.35 8.932 14.432 10.86a.267.267 0 0 0 .352-.184l.734-2.822a.273.273 0 0 0-.186-.33c-4.05-1.233-8.733-4.963-8.834-5.243h4.843a.27.27 0 0 0 .252-.174l1.057-2.805a.272.272 0 0 0-.125-.335c-2.524-1.377-5.661-3.933-7.037-5.57h3.3a.27.27 0 0 0 .247-.165l1.217-2.872a.269.269 0 0 0-.085-.32Z"/>
    <path fill="#80B224" d="M14.789 31.393c1.092-.402 2.35-.518 3.487-.479 1.065.037 2.05.212 2.727.433l.131.046.025.008.023.013c.714.393 1.696.777 2.633 1.04.466.132.916.232 1.31.289.398.057.717.067.933.031a.337.337 0 1 1 .108.665c-.316.051-.714.031-1.138-.03-.43-.062-.908-.169-1.396-.306-.962-.272-1.981-.667-2.747-1.084-.598-.211-1.561-.395-2.633-.432-1.075-.037-2.228.073-3.206.43-2.514 1.421-4.25 1.44-5.238 1.44a.337.337 0 0 1 0-.673c.927 0 2.542-.01 4.931-1.367l.024-.014.026-.01Z"/>
    <path fill="#80B224" d="M14.74 32.801c1.102-.402 2.372-.518 3.52-.479 1.076.037 2.07.212 2.754.433l.132.045.025.01.023.012c.722.393 1.714.777 2.66 1.04.473.132.927.232 1.325.289.403.057.726.067.945.031a.337.337 0 1 1 .107.665c-.318.051-.72.031-1.147-.03a11.286 11.286 0 0 1-1.41-.306c-.972-.271-2.001-.667-2.774-1.084-.605-.21-1.58-.395-2.663-.432-1.087-.037-2.253.074-3.242.43-2.538 1.421-4.205 1.429-5.203 1.429a.337.337 0 0 1 0-.673c.936 0 2.483.002 4.899-1.357l.023-.013.026-.01Z"/>
    <path fill="#80B224" d="M14.747 34.218c2.186-.79 4.81-.569 6.293-.073l.14.049.031.011.03.016a12.91 12.91 0 0 0 2.707 1.073c.866.23 1.583.303 2.027.239a.471.471 0 0 1 .135.932c-.63.091-1.492-.018-2.403-.26a13.846 13.846 0 0 1-2.877-1.135c-1.279-.457-3.738-.688-5.738.025-1.236.623-2.056.96-2.807 1.145-.758.185-1.425.208-2.324.236a.471.471 0 0 1-.029-.942c.91-.028 1.48-.05 2.13-.21.65-.16 1.4-.462 2.632-1.084l.026-.013.027-.01Z"/>
    <path fill="url(#b)" d="M10.109 24.577h3.284c-.703.98-2.55 2.768-3.306 3.286v-.001H5.244c-.01 0-.02 0-.03-.002 1.561-.774 4.614-3.071 4.888-3.278l.008-.006-.001.001Z"/>
    <path fill="url(#c)" d="M11.837 15.68h2.066c-.652.915-2 2.629-2.814 3.297H7.821c1.306-1.006 3.793-3.03 4.017-3.301h.002l-.003.003Z"/>
    <path fill="url(#d)" d="M24.152 15.705c.351.368 2.768 2.332 4.025 3.298h-3.27c-.803-.642-2.16-2.363-2.828-3.298h2.073Z"/>
    <path fill="url(#e)" d="M25.89 24.603c.413.31 3.392 2.542 4.899 3.276l-.657.01h-4.217c-.723-.478-2.596-2.284-3.325-3.286h3.3Z"/>
  </g>
  <defs>
    <linearGradient id="b" x1="9.303" x2="9.303" y1="24.576" y2="27.863" gradientUnits="userSpaceOnUse">
      <stop stop-color="#1B9135"/>
      <stop offset="1" stop-color="#1A552C"/>
    </linearGradient>
    <linearGradient id="c" x1="10.862" x2="10.862" y1="15.676" y2="18.977" gradientUnits="userSpaceOnUse">
      <stop stop-color="#1B9135"/>
      <stop offset="1" stop-color="#1A552C"/>
    </linearGradient>
    <linearGradient id="d" x1="25.128" x2="25.128" y1="15.705" y2="19.003" gradientUnits="userSpaceOnUse">
      <stop stop-color="#1B9135"/>
      <stop offset="1" stop-color="#1A552C"/>
    </linearGradient>
    <linearGradient id="e" x1="26.689" x2="26.689" y1="24.603" y2="27.888" gradientUnits="userSpaceOnUse">
      <stop stop-color="#1B9135"/>
      <stop offset="1" stop-color="#1A552C"/>
    </linearGradient>
    <clipPath id="a">
      <path fill="#fff" d="M0 0h36v40H0z"/>
    </clipPath>
  </defs>
</svg>
