<svg width="172" height="40" viewBox="0 0 172 40" fill="none" xmlns="http://www.w3.org/2000/svg">
<path d="M6.41863 15.1915C9.6667 12.7433 13.9373 8.7155 17.0247 3.76974C17.2093 3.47407 17.6448 3.53057 17.698 3.87504C18.3437 8.05534 14.4151 12.798 11.8372 15.2501H13.8607H16.9249C17.3312 15.2501 17.5872 15.6846 17.3783 16.0331C15.1259 19.7896 12.1258 22.4465 10.1093 24.1479H16.0336C16.5566 24.1479 16.8763 24.7171 16.585 25.1516C12.8877 30.6657 7.23468 34.0833 2.15357 36.0113C2.00458 36.0679 1.84084 35.9816 1.80075 35.8274L1.06713 33.0058C1.03022 32.8638 1.11299 32.719 1.25333 32.6762C5.30386 31.4422 9.98671 27.7126 10.0875 27.4328H5.24447C5.13242 27.4328 5.03209 27.3634 4.99255 27.2586L3.9349 24.4536C3.88698 24.3266 3.94099 24.1841 4.06023 24.119C6.58462 22.742 9.72164 20.1853 11.0969 18.5481H7.79759C7.68948 18.5481 7.59185 18.4835 7.54968 18.3839L6.33312 15.512C6.28472 15.3977 6.31955 15.2662 6.41863 15.1915Z" fill="#80B224"/>
<path d="M29.5826 15.2177C26.3345 12.7696 22.064 8.74175 18.9765 3.79599C18.7919 3.50032 18.3564 3.55682 18.3032 3.90128C17.6575 8.08159 21.5862 12.8242 24.164 15.2763H19.083C18.6737 15.2763 18.4158 15.7141 18.6263 16.065C20.8784 19.8185 23.8764 22.4736 25.8919 24.1742H19.9677C19.4446 24.1742 19.1249 24.7433 19.4162 25.1778C23.1135 30.6919 28.7665 34.1095 33.8477 36.0376C33.9966 36.0941 34.1604 36.0079 34.2005 35.8537L34.9341 33.0321C34.971 32.8901 34.8882 32.7452 34.7479 32.7024C30.6974 31.4685 26.0145 27.7389 25.9138 27.459H30.7567C30.8688 27.459 30.9691 27.3896 31.0087 27.2848L32.0663 24.4799C32.1142 24.3528 32.0602 24.2103 31.941 24.1453C29.4166 22.7683 26.2796 20.2115 24.9044 18.5744H28.2036C28.3117 18.5744 28.4094 18.5097 28.4515 18.4102L29.6681 15.5382C29.7165 15.424 29.6817 15.2924 29.5826 15.2177Z" fill="#80B224"/>
<path d="M14.7889 30.9644C15.8811 30.5614 17.1389 30.4457 18.2756 30.4852C19.3406 30.5222 20.3264 30.6965 21.0029 30.9184L21.134 30.9635L21.1591 30.9724L21.1823 30.9853C21.8961 31.3779 22.8782 31.7618 23.8145 32.0257C24.2814 32.1573 24.7309 32.2572 25.1242 32.3137C25.523 32.3711 25.842 32.3805 26.058 32.3453C26.2414 32.3154 26.4144 32.4398 26.4443 32.6232C26.4742 32.8066 26.3497 32.9796 26.1663 33.0095C25.8504 33.061 25.4523 33.0409 25.0284 32.98C24.5988 32.9182 24.1197 32.811 23.632 32.6735C22.67 32.4024 21.6507 32.0069 20.885 31.5895C20.2874 31.3787 19.3238 31.1952 18.2522 31.1579C17.1772 31.1205 16.0239 31.2314 15.0459 31.5871C12.5321 33.0094 10.7959 33.0275 9.80822 33.0275C9.62236 33.0275 9.47169 32.8769 9.47168 32.691C9.47168 32.5051 9.62235 32.3545 9.80822 32.3545C10.7348 32.3545 12.3501 32.3454 14.7391 30.9875L14.763 30.9739L14.7889 30.9644Z" fill="#80B224"/>
<path d="M14.74 32.3721C15.8425 31.9695 17.1124 31.8538 18.2602 31.8933C19.3356 31.9303 20.3309 32.1046 21.0137 32.3262L21.146 32.3712L21.171 32.38L21.1942 32.3926C21.9157 32.7854 22.9084 33.1696 23.8546 33.4335C24.3266 33.5652 24.781 33.6652 25.1787 33.7218C25.5819 33.7792 25.905 33.7886 26.1242 33.7532C26.3076 33.7236 26.4804 33.8483 26.51 34.0318C26.5396 34.2153 26.4149 34.3882 26.2314 34.4178C25.9133 34.4691 25.5118 34.4491 25.0838 34.3882C24.6501 34.3265 24.1663 34.2193 23.6737 34.0819C22.7021 33.8109 21.6727 33.4153 20.8995 32.9981C20.2951 32.787 19.3206 32.6033 18.237 32.566C17.1502 32.5286 15.984 32.6396 14.9948 32.9958C12.4572 34.4172 10.7904 34.4249 9.79211 34.4249C9.60624 34.4249 9.45557 34.2742 9.45557 34.0883C9.45558 33.9025 9.60625 33.7518 9.79211 33.7518C10.7279 33.7518 12.2752 33.7537 14.6905 32.3949L14.7143 32.3814L14.74 32.3721Z" fill="#80B224"/>
<path d="M14.7466 33.7885C16.9328 32.9987 19.5579 33.2202 21.0402 33.7158L21.18 33.7647L21.2113 33.776L21.2408 33.7918C22.1418 34.273 23.0952 34.6391 23.9485 34.8653C24.8143 35.0948 25.5312 35.1678 25.9753 35.1035C26.2328 35.0663 26.4718 35.2448 26.5091 35.5024C26.5463 35.7598 26.3678 35.9988 26.1104 36.0361C25.4799 36.1274 24.6179 36.0176 23.707 35.7762C22.7942 35.5342 21.786 35.1474 20.8305 34.6406C19.5511 34.1838 17.0922 33.9523 15.0917 34.6659C13.8561 35.2884 13.0364 35.6264 12.2854 35.8104C11.5267 35.9962 10.8595 36.0189 9.96144 36.047C9.70136 36.0551 9.48396 35.8509 9.47582 35.5908C9.46769 35.3307 9.67191 35.1133 9.93199 35.1052C10.8416 35.0768 11.4127 35.054 12.0611 34.8951C12.7118 34.7358 13.4616 34.4333 14.6944 33.8111L14.7198 33.7982L14.7466 33.7885Z" fill="#80B224"/>
<path d="M10.1092 24.1479H13.3933C12.6902 25.1272 10.8426 26.9158 10.0869 27.4336C10.087 27.4333 10.0873 27.4331 10.0874 27.4328H5.24439C5.23419 27.4328 5.22408 27.432 5.21411 27.4309C6.77535 26.6569 9.82796 24.3595 10.1023 24.153L10.1097 24.1474L10.1092 24.1479Z" fill="url(#paint0_linear_32_960)"/>
<path d="M11.8364 15.25H13.9032C13.2507 16.1659 11.9034 17.8798 11.0892 18.5481H7.82056C9.12655 17.542 11.614 15.5183 11.838 15.2467L11.8398 15.2466C11.8387 15.2477 11.8376 15.2489 11.8364 15.25Z" fill="url(#paint1_linear_32_960)"/>
<path d="M24.1523 15.2763C24.5031 15.6438 26.9202 17.6078 28.1773 18.5744H24.907C24.1042 17.932 22.7473 16.2108 22.0791 15.2763H24.1523Z" fill="url(#paint2_linear_32_960)"/>
<path d="M25.89 24.1741C26.3031 24.4847 29.2816 26.7161 30.789 27.4503L30.1319 27.459H25.9151C25.1915 26.9815 23.3191 25.1759 22.5898 24.1741H25.89Z" fill="url(#paint3_linear_32_960)"/>
<path d="M161.725 27.1982C160.758 27.1982 159.925 26.9915 159.226 26.5781C158.531 26.1605 157.994 25.5746 157.615 24.8203C157.24 24.0618 157.053 23.1733 157.053 22.1548C157.053 21.1492 157.24 20.2628 157.615 19.4957C157.994 18.7287 158.523 18.13 159.2 17.6996C159.882 17.2692 160.679 17.054 161.591 17.054C162.145 17.054 162.682 17.1456 163.202 17.3288C163.722 17.5121 164.188 17.7997 164.602 18.1918C165.015 18.5838 165.341 19.093 165.58 19.7195C165.818 20.3416 165.938 21.098 165.938 21.9886V22.6662H158.133V21.2344H164.065C164.065 20.7315 163.963 20.2862 163.758 19.8984C163.553 19.5064 163.266 19.1975 162.895 18.9716C162.529 18.7457 162.098 18.6328 161.604 18.6328C161.067 18.6328 160.598 18.7649 160.198 19.0291C159.801 19.2891 159.494 19.63 159.277 20.0519C159.064 20.4695 158.958 20.9233 158.958 21.4134V22.532C158.958 23.1882 159.073 23.7465 159.303 24.2067C159.537 24.6669 159.863 25.0185 160.281 25.2614C160.698 25.5 161.186 25.6193 161.744 25.6193C162.107 25.6193 162.437 25.5682 162.735 25.4659C163.034 25.3594 163.291 25.2017 163.509 24.9929C163.726 24.7841 163.892 24.5263 164.007 24.2195L165.816 24.5455C165.671 25.0781 165.411 25.5448 165.036 25.9453C164.666 26.3416 164.199 26.6506 163.637 26.8722C163.078 27.0895 162.441 27.1982 161.725 27.1982Z" fill="#333333"/>
<path d="M156.032 17.1818L152.471 27H150.426L146.859 17.1818H148.911L151.397 24.7372H151.5L153.98 17.1818H156.032Z" fill="#333333"/>
<path d="M140.593 27.2173C139.971 27.2173 139.408 27.1023 138.906 26.8722C138.403 26.6378 138.004 26.299 137.71 25.8558C137.421 25.4127 137.276 24.8693 137.276 24.2259C137.276 23.6719 137.382 23.2159 137.595 22.858C137.808 22.5 138.096 22.2166 138.458 22.0078C138.82 21.799 139.225 21.6413 139.673 21.5348C140.12 21.4283 140.576 21.3473 141.041 21.2919C141.629 21.2237 142.106 21.1683 142.472 21.1257C142.839 21.0788 143.105 21.0043 143.271 20.902C143.438 20.7997 143.521 20.6335 143.521 20.4034V20.3587C143.521 19.8004 143.363 19.3679 143.048 19.0611C142.737 18.7543 142.272 18.6009 141.654 18.6009C141.011 18.6009 140.504 18.7436 140.133 19.0291C139.766 19.3104 139.513 19.6236 139.372 19.9688L137.576 19.5597C137.789 18.9631 138.1 18.4815 138.509 18.1151C138.923 17.7443 139.398 17.4759 139.935 17.3097C140.472 17.1392 141.036 17.054 141.629 17.054C142.021 17.054 142.436 17.1009 142.875 17.1946C143.318 17.2841 143.732 17.4503 144.115 17.6932C144.503 17.9361 144.82 18.2834 145.068 18.7351C145.315 19.1825 145.438 19.7642 145.438 20.4801V27H143.572V25.6577H143.495C143.372 25.9048 143.186 26.1477 142.939 26.3864C142.692 26.625 142.374 26.8232 141.987 26.9808C141.599 27.1385 141.134 27.2173 140.593 27.2173ZM141.009 25.6832C141.537 25.6832 141.989 25.5788 142.364 25.37C142.743 25.1612 143.031 24.8885 143.227 24.5519C143.427 24.2109 143.527 23.8466 143.527 23.4588V22.1932C143.459 22.2614 143.327 22.3253 143.131 22.385C142.939 22.4403 142.72 22.4894 142.472 22.532C142.225 22.5703 141.984 22.6065 141.75 22.6406C141.516 22.6705 141.32 22.696 141.162 22.7173C140.791 22.7642 140.452 22.843 140.146 22.9538C139.843 23.0646 139.6 23.2244 139.417 23.4332C139.238 23.6378 139.148 23.9105 139.148 24.2514C139.148 24.7244 139.323 25.0824 139.673 25.3253C140.022 25.5639 140.467 25.6832 141.009 25.6832Z" fill="#333333"/>
<path d="M123.824 27L120.193 13.9091H122.271L124.821 24.0469H124.942L127.595 13.9091H129.653L132.306 24.0533H132.427L134.972 13.9091H137.055L133.418 27H131.43L128.675 17.1946H128.573L125.818 27H123.824Z" fill="#333333"/>
<path d="M107.356 30.6818C107.071 30.6818 106.811 30.6584 106.576 30.6115C106.342 30.5689 106.167 30.522 106.052 30.4709L106.513 28.9048C106.862 28.9986 107.173 29.0391 107.446 29.0263C107.719 29.0135 107.959 28.9112 108.168 28.7195C108.381 28.5277 108.569 28.2145 108.731 27.7798L108.967 27.1278L105.375 17.1818H107.42L109.907 24.8011H110.009L112.495 17.1818H114.547L110.501 28.3104C110.314 28.8217 110.075 29.2543 109.785 29.608C109.495 29.9659 109.15 30.2344 108.75 30.4134C108.349 30.5923 107.885 30.6818 107.356 30.6818Z" fill="#333333"/>
<path d="M95.3728 30.6818V17.1818H97.2393V18.7734H97.3991C97.5099 18.5689 97.6697 18.3324 97.8785 18.0639C98.0873 17.7955 98.3771 17.5611 98.7478 17.3608C99.1185 17.1563 99.6086 17.054 100.218 17.054C101.011 17.054 101.718 17.2543 102.34 17.6548C102.962 18.0554 103.45 18.6328 103.804 19.3871C104.162 20.1413 104.341 21.049 104.341 22.1101C104.341 23.1712 104.164 24.081 103.81 24.8395C103.457 25.5938 102.971 26.1754 102.353 26.5845C101.735 26.9894 101.03 27.1918 100.237 27.1918C99.6406 27.1918 99.1526 27.0916 98.7734 26.8913C98.3984 26.6911 98.1043 26.4567 97.8913 26.1882C97.6782 25.9198 97.5141 25.6811 97.3991 25.4723H97.284V30.6818H95.3728ZM97.2457 22.0909C97.2457 22.7813 97.3458 23.3864 97.5461 23.9063C97.7464 24.4261 98.0362 24.8331 98.4154 25.1271C98.7947 25.4169 99.2592 25.5618 99.8089 25.5618C100.38 25.5618 100.857 25.4105 101.241 25.108C101.624 24.8011 101.914 24.3857 102.11 23.8615C102.31 23.3374 102.41 22.7472 102.41 22.0909C102.41 21.4432 102.312 20.8615 102.116 20.3459C101.925 19.8303 101.635 19.4233 101.247 19.125C100.864 18.8267 100.384 18.6776 99.8089 18.6776C99.2549 18.6776 98.7862 18.8203 98.4026 19.1058C98.0234 19.3913 97.7357 19.7898 97.5397 20.3011C97.3437 20.8125 97.2457 21.4091 97.2457 22.0909Z" fill="#333333"/>
<path d="M88.6626 27.1982C87.7422 27.1982 86.9389 26.9872 86.2528 26.5653C85.5668 26.1435 85.0341 25.5533 84.6548 24.7948C84.2756 24.0362 84.0859 23.1499 84.0859 22.1357C84.0859 21.1172 84.2756 20.2266 84.6548 19.4638C85.0341 18.701 85.5668 18.1087 86.2528 17.6868C86.9389 17.2649 87.7422 17.054 88.6626 17.054C89.5831 17.054 90.3864 17.2649 91.0724 17.6868C91.7585 18.1087 92.2912 18.701 92.6705 19.4638C93.0497 20.2266 93.2393 21.1172 93.2393 22.1357C93.2393 23.1499 93.0497 24.0362 92.6705 24.7948C92.2912 25.5533 91.7585 26.1435 91.0724 26.5653C90.3864 26.9872 89.5831 27.1982 88.6626 27.1982ZM88.669 25.5938C89.2656 25.5938 89.7599 25.4361 90.152 25.1207C90.544 24.8054 90.8338 24.3857 91.0213 23.8615C91.2131 23.3374 91.3089 22.76 91.3089 22.1293C91.3089 21.5028 91.2131 20.9276 91.0213 20.4034C90.8338 19.875 90.544 19.451 90.152 19.1314C89.7599 18.8118 89.2656 18.652 88.669 18.652C88.0682 18.652 87.5696 18.8118 87.1733 19.1314C86.7812 19.451 86.4893 19.875 86.2976 20.4034C86.1101 20.9276 86.0163 21.5028 86.0163 22.1293C86.0163 22.76 86.1101 23.3374 86.2976 23.8615C86.4893 24.3857 86.7812 24.8054 87.1733 25.1207C87.5696 25.4361 88.0682 25.5938 88.669 25.5938Z" fill="#333333"/>
<path d="M75.6805 21.1705V27H73.7693V17.1818H75.6038V18.7798H75.7253C75.9511 18.26 76.3048 17.8423 76.7863 17.527C77.2721 17.2117 77.8836 17.054 78.6208 17.054C79.2899 17.054 79.8758 17.1946 80.3787 17.4759C80.8815 17.7528 81.2714 18.1662 81.5484 18.7159C81.8254 19.2656 81.9639 19.9453 81.9639 20.755V27H80.0527V20.9851C80.0527 20.2734 79.8673 19.7173 79.4966 19.3168C79.1258 18.9119 78.6166 18.7095 77.9689 18.7095C77.5257 18.7095 77.1315 18.8054 76.7863 18.9972C76.4454 19.1889 76.1748 19.4702 75.9745 19.8409C75.7785 20.2074 75.6805 20.6506 75.6805 21.1705Z" fill="#333333"/>
<path d="M66.3783 27.2173C65.7561 27.2173 65.1936 27.1023 64.6908 26.8722C64.1879 26.6378 63.7895 26.299 63.4955 25.8558C63.2057 25.4127 63.0608 24.8693 63.0608 24.2259C63.0608 23.6719 63.1673 23.2159 63.3804 22.858C63.5935 22.5 63.8811 22.2166 64.2433 22.0078C64.6055 21.799 65.0104 21.6413 65.4578 21.5348C65.9053 21.4283 66.3612 21.3473 66.8257 21.2919C67.4138 21.2237 67.891 21.1683 68.2575 21.1257C68.624 21.0788 68.8903 21.0043 69.0565 20.902C69.2227 20.7997 69.3058 20.6335 69.3058 20.4034V20.3587C69.3058 19.8004 69.1482 19.3679 68.8328 19.0611C68.5217 18.7543 68.0572 18.6009 67.4393 18.6009C66.7959 18.6009 66.2888 18.7436 65.918 19.0291C65.5516 19.3104 65.298 19.6236 65.1574 19.9688L63.3612 19.5597C63.5743 18.9631 63.8854 18.4815 64.2945 18.1151C64.7078 17.7443 65.183 17.4759 65.7199 17.3097C66.2568 17.1392 66.8214 17.054 67.4138 17.054C67.8058 17.054 68.2213 17.1009 68.6602 17.1946C69.1034 17.2841 69.5168 17.4503 69.9003 17.6932C70.2881 17.9361 70.6055 18.2834 70.8527 18.7351C71.0999 19.1825 71.2234 19.7642 71.2234 20.4801V27H69.357V25.6577H69.2803C69.1567 25.9048 68.9713 26.1477 68.7241 26.3864C68.477 26.625 68.1595 26.8232 67.7717 26.9808C67.3839 27.1385 66.9195 27.2173 66.3783 27.2173ZM66.7937 25.6832C67.3222 25.6832 67.7739 25.5788 68.1489 25.37C68.5281 25.1612 68.8158 24.8885 69.0118 24.5519C69.2121 24.2109 69.3122 23.8466 69.3122 23.4588V22.1932C69.244 22.2614 69.1119 22.3253 68.9159 22.385C68.7241 22.4403 68.5047 22.4894 68.2575 22.532C68.0104 22.5703 67.7696 22.6065 67.5352 22.6406C67.3008 22.6705 67.1048 22.696 66.9472 22.7173C66.5764 22.7642 66.2376 22.843 65.9308 22.9538C65.6283 23.0646 65.3854 23.2244 65.2021 23.4332C65.0232 23.6378 64.9337 23.9105 64.9337 24.2514C64.9337 24.7244 65.1084 25.0824 65.4578 25.3253C65.8072 25.5639 66.2526 25.6832 66.7937 25.6832Z" fill="#333333"/>
<path d="M61.3111 18.1662H59.3168C59.2401 17.74 59.0973 17.365 58.8885 17.0412C58.6797 16.7173 58.424 16.4425 58.1215 16.2166C57.8189 15.9908 57.4801 15.8203 57.1051 15.7052C56.7344 15.5902 56.3402 15.5327 55.9226 15.5327C55.1683 15.5327 54.4929 15.7223 53.8963 16.1016C53.304 16.4808 52.8352 17.0369 52.4901 17.7699C52.1492 18.5028 51.9787 19.3977 51.9787 20.4545C51.9787 21.5199 52.1492 22.419 52.4901 23.152C52.8352 23.8849 53.3061 24.4389 53.9027 24.8139C54.4993 25.1889 55.1705 25.3764 55.9162 25.3764C56.3296 25.3764 56.7216 25.321 57.0924 25.2102C57.4674 25.0952 57.8061 24.9268 58.1087 24.7052C58.4112 24.4837 58.6669 24.2131 58.8757 23.8935C59.0888 23.5696 59.2358 23.1989 59.3168 22.7812L61.3111 22.7876C61.2046 23.4311 60.9979 24.0234 60.6911 24.5646C60.3885 25.1016 59.9986 25.566 59.5213 25.9581C59.0483 26.3459 58.5071 26.6463 57.8977 26.8594C57.2884 27.0724 56.6236 27.179 55.9034 27.179C54.7699 27.179 53.76 26.9105 52.8736 26.3736C51.9872 25.8324 51.2884 25.0589 50.777 24.0533C50.2699 23.0476 50.0164 21.848 50.0164 20.4545C50.0164 19.0568 50.272 17.8572 50.7834 16.8558C51.2948 15.8501 51.9936 15.0788 52.88 14.5419C53.7664 14.0007 54.7742 13.7301 55.9034 13.7301C56.598 13.7301 57.2458 13.8302 57.8466 14.0305C58.4517 14.2266 58.9951 14.5163 59.4766 14.8998C59.9581 15.2791 60.3566 15.7436 60.6719 16.2933C60.9872 16.8388 61.2003 17.4631 61.3111 18.1662Z" fill="#333333"/>
<defs>
<linearGradient id="paint0_linear_32_960" x1="9.30372" y1="24.1474" x2="9.30372" y2="27.4336" gradientUnits="userSpaceOnUse">
<stop stop-color="#1B9135"/>
<stop offset="1" stop-color="#1A552C"/>
</linearGradient>
<linearGradient id="paint1_linear_32_960" x1="10.8619" y1="15.2466" x2="10.8619" y2="18.5481" gradientUnits="userSpaceOnUse">
<stop stop-color="#1B9135"/>
<stop offset="1" stop-color="#1A552C"/>
</linearGradient>
<linearGradient id="paint2_linear_32_960" x1="25.1282" y1="15.2763" x2="25.1282" y2="18.5744" gradientUnits="userSpaceOnUse">
<stop stop-color="#1B9135"/>
<stop offset="1" stop-color="#1A552C"/>
</linearGradient>
<linearGradient id="paint3_linear_32_960" x1="26.6894" y1="24.1741" x2="26.6894" y2="27.459" gradientUnits="userSpaceOnUse">
<stop stop-color="#1B9135"/>
<stop offset="1" stop-color="#1A552C"/>
</linearGradient>
</defs>
</svg>
